<mxfile host="app.diagrams.net" modified="2024-03-12T13:44:12.574Z" agent="Mozilla/5.0 (Windows NT 10.0; Win64; x64) AppleWebKit/537.36 (KHTML, like Gecko) Chrome/122.0.0.0 Safari/537.36" etag="Prs1phz3J0rAa4PWlXeq" version="24.0.5" type="device">
  <diagram name="PÃ¡gina-1" id="HWXdvwTTCsq9tXWzhO9i">
    <mxGraphModel dx="1434" dy="772" grid="1" gridSize="10" guides="1" tooltips="1" connect="1" arrows="1" fold="1" page="1" pageScale="1" pageWidth="827" pageHeight="1169" math="0" shadow="0">
      <root>
        <mxCell id="0" />
        <mxCell id="1" parent="0" />
        <mxCell id="3Xb9jGUb7889vdl9GRGP-2" value="" style="rounded=0;whiteSpace=wrap;html=1;" vertex="1" parent="1">
          <mxGeometry x="40" y="30" width="570" height="350" as="geometry" />
        </mxCell>
        <mxCell id="3Xb9jGUb7889vdl9GRGP-3" value="imagem" style="ellipse;whiteSpace=wrap;html=1;rotation=90;" vertex="1" parent="1">
          <mxGeometry x="430" y="100" width="120" height="80" as="geometry" />
        </mxCell>
        <mxCell id="3Xb9jGUb7889vdl9GRGP-4" style="edgeStyle=orthogonalEdgeStyle;rounded=0;orthogonalLoop=1;jettySize=auto;html=1;exitX=0.5;exitY=1;exitDx=0;exitDy=0;" edge="1" parent="1" source="3Xb9jGUb7889vdl9GRGP-2" target="3Xb9jGUb7889vdl9GRGP-2">
          <mxGeometry relative="1" as="geometry" />
        </mxCell>
        <mxCell id="3Xb9jGUb7889vdl9GRGP-6" value="contatos" style="rounded=0;whiteSpace=wrap;html=1;" vertex="1" parent="1">
          <mxGeometry x="40" y="350" width="570" height="30" as="geometry" />
        </mxCell>
        <mxCell id="3Xb9jGUb7889vdl9GRGP-7" value="historico" style="rounded=0;whiteSpace=wrap;html=1;" vertex="1" parent="1">
          <mxGeometry x="60" y="120" width="100" height="60" as="geometry" />
        </mxCell>
        <mxCell id="3Xb9jGUb7889vdl9GRGP-8" value="conquistas" style="rounded=0;whiteSpace=wrap;html=1;" vertex="1" parent="1">
          <mxGeometry x="180" y="120" width="90" height="60" as="geometry" />
        </mxCell>
        <mxCell id="3Xb9jGUb7889vdl9GRGP-11" value="" style="rounded=0;whiteSpace=wrap;html=1;" vertex="1" parent="1">
          <mxGeometry x="290" y="120" width="90" height="60" as="geometry" />
        </mxCell>
        <mxCell id="3Xb9jGUb7889vdl9GRGP-12" value="sobre mim" style="rounded=0;whiteSpace=wrap;html=1;" vertex="1" parent="1">
          <mxGeometry x="60" y="200" width="320" height="90" as="geometry" />
        </mxCell>
      </root>
    </mxGraphModel>
  </diagram>
</mxfile>
